<svg xmlns="http://www.w3.org/2000/svg" width="265.651" height="227.83" viewBox="0 0 265.651 227.83">
  <g id="Grupo_114" data-name="Grupo 114" transform="translate(-550 -160)">
    <g id="Grupo_104" data-name="Grupo 104" transform="translate(457.54 74.142)">
      <g id="Grupo_91" data-name="Grupo 91" transform="translate(224.283 63.688)">
        <path id="Caminho_35" data-name="Caminho 35" d="M299.136,148.77a.918.918,0,0,1-1-.8V64.484a1.03,1.03,0,0,1,2.006,0v83.491A.917.917,0,0,1,299.136,148.77Z" transform="translate(-298.133 -41.518)" fill="#ead4c5"/>
      </g>
      <g id="Grupo_92" data-name="Grupo 92" transform="translate(133.212 169.102)">
        <path id="Caminho_36" data-name="Caminho 36" d="M202.457,256.383a1,1,0,0,1-.5-.135L156.544,230.03a1,1,0,1,1,1-1.737l45.413,26.219a1,1,0,0,1-.5,1.872Z" transform="translate(-156.042 -228.158)" fill="#ead4c5"/>
      </g>
      <g id="Grupo_93" data-name="Grupo 93" transform="translate(122.508 194.411)">
        <path id="Caminho_37" data-name="Caminho 37" d="M191.159,283.268a1.013,1.013,0,0,1-.26-.034l-50.814-13.616a1,1,0,0,1,.519-1.938L191.418,281.3a1,1,0,0,1-.259,1.972Z" transform="translate(-139.341 -267.646)" fill="#ead4c5"/>
      </g>
      <g id="Grupo_94" data-name="Grupo 94" transform="translate(131.07 128.47)">
        <path id="Caminho_38" data-name="Caminho 38" d="M209.618,222.682a1,1,0,0,1-.71-.294l-55.914-55.914a1,1,0,0,1,1.418-1.418l55.914,55.914a1,1,0,0,1-.709,1.713Z" transform="translate(-152.701 -164.762)" fill="#ead4c5"/>
      </g>
      <g id="Grupo_95" data-name="Grupo 95" transform="translate(171.596 130.427)">
        <path id="Caminho_39" data-name="Caminho 39" d="M243.243,215.389a1,1,0,0,1-.87-.5L216.065,169.32a1,1,0,1,1,1.738-1l26.308,45.567a1,1,0,0,1-.868,1.5Z" transform="translate(-215.93 -167.816)" fill="#ead4c5"/>
      </g>
      <g id="Grupo_96" data-name="Grupo 96" transform="translate(197.035 119.993)">
        <path id="Caminho_40" data-name="Caminho 40" d="M270.215,204.27a1,1,0,0,1-.968-.744L255.655,152.8a1,1,0,0,1,1.938-.519l13.592,50.726a1,1,0,0,1-.97,1.263Z" transform="translate(-255.62 -151.537)" fill="#ead4c5"/>
      </g>
      <g id="Grupo_97" data-name="Grupo 97" transform="translate(269.97 168.96)">
        <path id="Caminho_41" data-name="Caminho 41" d="M370.42,256.286a1,1,0,0,1-.5-1.872l45.63-26.344a1,1,0,1,1,1,1.738l-45.629,26.344A1,1,0,0,1,370.42,256.286Z" transform="translate(-369.416 -227.936)" fill="#ead4c5"/>
      </g>
      <g id="Grupo_98" data-name="Grupo 98" transform="translate(274.407 194.464)">
        <path id="Caminho_42" data-name="Caminho 42" d="M377.34,283.522a1,1,0,0,1-.259-1.973l51.455-13.787a1,1,0,1,1,.519,1.938L377.6,283.487A.985.985,0,0,1,377.34,283.522Z" transform="translate(-376.338 -267.728)" fill="#ead4c5"/>
      </g>
      <g id="Grupo_99" data-name="Grupo 99" transform="translate(261.581 128.47)">
        <path id="Caminho_43" data-name="Caminho 43" d="M357.33,222.682a1,1,0,0,1-.71-1.713l55.914-55.914a1,1,0,0,1,1.419,1.418l-55.914,55.914A1,1,0,0,1,357.33,222.682Z" transform="translate(-356.327 -164.762)" fill="#ead4c5"/>
      </g>
      <g id="Grupo_100" data-name="Grupo 100" transform="translate(250.661 130.439)">
        <path id="Caminho_44" data-name="Caminho 44" d="M340.291,215.4a1,1,0,0,1-.868-1.5l26.3-45.555a1,1,0,1,1,1.738,1l-26.3,45.555A1,1,0,0,1,340.291,215.4Z" transform="translate(-339.289 -167.834)" fill="#ead4c5"/>
      </g>
      <g id="Grupo_101" data-name="Grupo 101" transform="translate(237.938 119.827)">
        <path id="Caminho_45" data-name="Caminho 45" d="M320.443,204.177a1.015,1.015,0,0,1-.26-.034,1,1,0,0,1-.71-1.229l13.637-50.893a1,1,0,0,1,1.938.519l-13.636,50.893A1,1,0,0,1,320.443,204.177Z" transform="translate(-319.439 -151.278)" fill="#ead4c5"/>
      </g>
      <g id="Grupo_102" data-name="Grupo 102" transform="translate(277.03 221.682)">
        <path id="Caminho_46" data-name="Caminho 46" d="M460.509,312.2H381.435a1,1,0,1,1,0-2.006h79.074a1,1,0,0,1,0,2.006Z" transform="translate(-380.431 -310.194)" fill="#ead4c5"/>
      </g>
      <g id="Grupo_103" data-name="Grupo 103" transform="translate(92.46 221.682)">
        <path id="Caminho_47" data-name="Caminho 47" d="M172.538,312.2H93.464a1,1,0,1,1,0-2.006h79.074a1,1,0,1,1,0,2.006Z" transform="translate(-92.46 -310.194)" fill="#ead4c5"/>
      </g>
    </g>
    <circle id="Elipse_3" data-name="Elipse 3" cx="90" cy="90" r="90" transform="translate(593 207.83)" fill="#fcf8f5"/>
  </g>
</svg>
