<svg xmlns="http://www.w3.org/2000/svg" width="25" height="25" viewBox="0 0 25 25">
  <path id="Icon_awesome-whatsapp" data-name="Icon awesome-whatsapp" d="M21.256,5.883a12.392,12.392,0,0,0-19.5,14.95L0,27.25l6.568-1.724a12.351,12.351,0,0,0,5.921,1.507h.006A12.508,12.508,0,0,0,25,14.644a12.437,12.437,0,0,0-3.744-8.761ZM12.494,24.945a10.279,10.279,0,0,1-5.246-1.434l-.374-.223-3.9,1.021,1.038-3.8-.246-.391a10.317,10.317,0,1,1,19.135-5.474,10.412,10.412,0,0,1-10.413,10.3Zm5.647-7.712c-.307-.156-1.83-.9-2.115-1s-.491-.156-.7.156-.8,1-.982,1.217-.363.234-.67.078A8.426,8.426,0,0,1,9.464,14c-.318-.547.318-.508.91-1.691a.574.574,0,0,0-.028-.541c-.078-.156-.7-1.68-.954-2.3-.251-.6-.508-.519-.7-.53s-.385-.011-.592-.011a1.147,1.147,0,0,0-.826.385,3.478,3.478,0,0,0-1.083,2.584,6.064,6.064,0,0,0,1.261,3.2,13.832,13.832,0,0,0,5.29,4.676c1.964.848,2.734.921,3.717.776a3.17,3.17,0,0,0,2.087-1.473,2.589,2.589,0,0,0,.179-1.473C18.655,17.462,18.449,17.384,18.142,17.233Z" transform="translate(0 -2.25)" fill="#374659"/>
</svg>
