<svg xmlns="http://www.w3.org/2000/svg" width="232.643" height="85.922" viewBox="0 0 232.643 85.922">
  <g id="Grupo_111" data-name="Grupo 111" transform="translate(-950 -208.054)">
    <path id="Caminho_49" data-name="Caminho 49" d="M6.606,36.164,0,39.993V55.3L6.606,59.12l6.616,3.828,6.609-3.828L26.444,55.3v-15.3l-6.612-3.83-6.61-3.825ZM58.261,55.288l6.62,3.826L71.5,62.945V78.263L64.88,82.094l-6.62,3.828-6.614-3.828-6.621-3.832V62.945l6.621-3.831ZM57.986,0,50.043,4.6,42.1,9.185V27.544l7.948,4.592,7.944,4.587,7.95-4.587,7.95-4.592V9.185L65.938,4.6ZM68.877,33.888l5.31,3.057L79.493,40V52.224l-5.305,3.057-5.31,3.056-5.308-3.056-5.309-3.057V40l5.309-3.055ZM34.44,59.915l3.984,2.295,3.981,2.29v9.166l-3.98,2.29L34.44,78.242l-3.986-2.287-3.982-2.291V64.5l3.982-2.29ZM26.471,12.451l5.288,3.055,5.292,3.061V30.795L31.759,33.85l-5.287,3.057-5.29-3.057-5.289-3.055V18.567L21.182,15.5Z" transform="translate(950 208.054)" fill="#1f1410" fill-rule="evenodd"/>
    <path id="Caminho_50" data-name="Caminho 50" d="M216.987,33.483H198.523v8.771h7.643V52.636a8.2,8.2,0,0,1-2.11.473,26.941,26.941,0,0,1-3.331.191,18.035,18.035,0,0,1-6.327-1.075,13.746,13.746,0,0,1-8.187-8.274,19.124,19.124,0,0,1-1.156-6.858,18.6,18.6,0,0,1,1.25-7.071,13.65,13.65,0,0,1,3.477-5.047,14.768,14.768,0,0,1,5.24-3.014,20.473,20.473,0,0,1,6.513-1,37.012,37.012,0,0,1,4.8.284,24.1,24.1,0,0,1,3.712.749,19.516,19.516,0,0,1,2.97,1.124l2.353-9.151a21.256,21.256,0,0,0-3.221-1.049,40.445,40.445,0,0,0-4.663-.886,49.607,49.607,0,0,0-5.87-.351A35.292,35.292,0,0,0,190.334,13.4a26.177,26.177,0,0,0-8.964,5.067,22.909,22.909,0,0,0-5.921,8.146,27.98,27.98,0,0,0-2.171,11.059,28.374,28.374,0,0,0,.824,6.96,24.549,24.549,0,0,0,2.365,6.118,21.54,21.54,0,0,0,3.8,4.986,22.236,22.236,0,0,0,8.4,4.95,37.449,37.449,0,0,0,11.773,1.68,46.832,46.832,0,0,0,6.432-.473,56.759,56.759,0,0,0,5.741-1.077q2.217-.528,4.382-1.25V33.483ZM131.506,61.846h11.179V41.881h17.8v-9.13h-17.8V21.391h19.062v-9.2H131.506ZM74.42,12.194v27.7c.008,5.242.807,9.56,2.361,12.9a15.722,15.722,0,0,0,6.735,7.477,22.1,22.1,0,0,0,10.706,2.4,23.43,23.43,0,0,0,11.12-2.461,16.422,16.422,0,0,0,7.079-7.491A29.1,29.1,0,0,0,114.9,40.048V12.2H103.711V40.7c-.018,4.42-.791,7.676-2.357,9.8a7.836,7.836,0,0,1-6.765,3.169,7.644,7.644,0,0,1-6.617-3.252c-1.556-2.16-2.333-5.4-2.369-9.716V12.192H74.42Z" transform="translate(965.652 214.844)" fill="#1f1410" fill-rule="evenodd"/>
  </g>
</svg>
