<svg id="Grupo_113" data-name="Grupo 113" xmlns="http://www.w3.org/2000/svg" xmlns:xlink="http://www.w3.org/1999/xlink" width="200" height="143.423" viewBox="0 0 200 143.423">
  <defs>
    <clipPath id="clip-path">
      <rect id="Retângulo_20" data-name="Retângulo 20" width="200" height="143.423" fill="none"/>
    </clipPath>
  </defs>
  <g id="Grupo_112" data-name="Grupo 112" clip-path="url(#clip-path)">
    <path id="Caminho_51" data-name="Caminho 51" d="M213.758,65.73a.615.615,0,0,1-.615-.615V.614a.615.615,0,1,1,1.229,0v64.5a.615.615,0,0,1-.615.615" transform="translate(-116.822 0.001)" fill="#7289a3"/>
    <path id="Caminho_52" data-name="Caminho 52" d="M118.081,160.258a.615.615,0,0,1-.307-.082L89.943,144.107a.615.615,0,1,1,.615-1.065L118.39,159.11a.615.615,0,0,1-.308,1.147" transform="translate(-49.128 -78.355)" fill="#7289a3"/>
    <path id="Caminho_53" data-name="Caminho 53" d="M106.876,186.857a.607.607,0,0,1-.16-.021l-31.142-8.344a.615.615,0,1,1,.318-1.188l31.142,8.344a.615.615,0,0,1-.159,1.209" transform="translate(-41.172 -97.167)" fill="#7289a3"/>
    <path id="Caminho_54" data-name="Caminho 54" d="M121.613,123.351a.613.613,0,0,1-.435-.18L86.911,88.9a.615.615,0,0,1,.869-.869L122.048,122.3a.615.615,0,0,1-.435,1.049" transform="translate(-47.536 -48.152)" fill="#7289a3"/>
    <path id="Caminho_55" data-name="Caminho 55" d="M158.43,119.665a.615.615,0,0,1-.533-.307L141.773,91.431a.615.615,0,0,1,1.065-.615l16.123,27.926a.615.615,0,0,1-.532.922" transform="translate(-77.66 -49.607)" fill="#7289a3"/>
    <path id="Caminho_56" data-name="Caminho 56" d="M185.134,108.677a.615.615,0,0,1-.593-.456l-8.33-31.088a.615.615,0,1,1,1.188-.318l8.33,31.088a.616.616,0,0,1-.594.774" transform="translate(-96.568 -41.852)" fill="#7289a3"/>
    <path id="Caminho_57" data-name="Caminho 57" d="M275.718,160.141a.615.615,0,0,1-.308-1.147l27.965-16.145a.615.615,0,0,1,.615,1.065l-27.965,16.146a.613.613,0,0,1-.306.082" transform="translate(-150.781 -78.249)" fill="#7289a3"/>
    <path id="Caminho_58" data-name="Caminho 58" d="M281.733,187.033a.615.615,0,0,1-.159-1.209l31.535-8.45a.615.615,0,0,1,.318,1.188l-31.535,8.449a.609.609,0,0,1-.16.021" transform="translate(-154.079 -97.206)" fill="#7289a3"/>
    <path id="Caminho_59" data-name="Caminho 59" d="M264.339,123.351a.615.615,0,0,1-.435-1.049l34.268-34.268a.615.615,0,0,1,.869.869l-34.268,34.268a.613.613,0,0,1-.435.18" transform="translate(-144.545 -48.152)" fill="#7289a3"/>
    <path id="Caminho_60" data-name="Caminho 60" d="M249.53,119.673a.615.615,0,0,1-.532-.922l16.119-27.919a.615.615,0,1,1,1.065.615l-16.119,27.919a.615.615,0,0,1-.533.307" transform="translate(-136.429 -49.616)" fill="#7289a3"/>
    <path id="Caminho_61" data-name="Caminho 61" d="M232.277,108.554a.608.608,0,0,1-.16-.021.614.614,0,0,1-.435-.753l8.357-31.19a.615.615,0,0,1,1.188.318L232.87,108.1a.615.615,0,0,1-.593.456" transform="translate(-126.972 -41.729)" fill="#7289a3"/>
    <path id="Caminho_62" data-name="Caminho 62" d="M333.754,215.5H285.292a.615.615,0,0,1,0-1.23h48.462a.615.615,0,0,1,0,1.23" transform="translate(-156.029 -117.438)" fill="#7289a3"/>
    <path id="Caminho_63" data-name="Caminho 63" d="M83.446,215.5H34.984a.615.615,0,0,1,0-1.23H83.446a.615.615,0,0,1,0,1.23" transform="translate(-18.837 -117.438)" fill="#7289a3"/>
    <path id="Caminho_64" data-name="Caminho 64" d="M26.212,273.434q-1.133,4.768-6.451,4.768H11.105V264.713h5.055a4.954,4.954,0,0,1,2.619.585,2.689,2.689,0,0,1,1.142,2.055q.041.426.071,1.065t.071,1.128h1.7V259.11h-1.7q-.041.42-.071.849t-.071.811A2.384,2.384,0,0,1,18.8,262.61a5.4,5.4,0,0,1-2.64.525H11.105v-12.7h9.242q3.6,0,4.773,1.964a5.938,5.938,0,0,1,.769,2.337q.182,1.376.283,3.148h1.577v-9.026H0l.063,1.578h5.6L5.644,278.2H1.6v1.6H28.214v-9.191H26.637a17.7,17.7,0,0,1-.425,2.826" transform="translate(0 -136.397)" fill="#fff"/>
    <path id="Caminho_65" data-name="Caminho 65" d="M96.213,250.414h3.753l-8.3,22.658-8.843-22.658h3.853v-1.557H73.895v1.557H76.57L89.346,279.8h1.7l11.079-29.385H105.2v-1.557H96.213Z" transform="translate(-40.501 -136.396)" fill="#fff"/>
    <path id="Caminho_66" data-name="Caminho 66" d="M160.69,248.813a15.305,15.305,0,0,0-8.342,2.19,14.149,14.149,0,0,0-5.248,5.8,16.322,16.322,0,0,0-1.284,3.621,17.4,17.4,0,0,0-.435,3.888,17.912,17.912,0,0,0,.435,3.927,16.375,16.375,0,0,0,1.284,3.671,14.285,14.285,0,0,0,2.134,3.177,13.189,13.189,0,0,0,2.983,2.5,14.627,14.627,0,0,0,3.822,1.628,19.044,19.044,0,0,0,9.384-.01,13.478,13.478,0,0,0,6.816-4.1,17.2,17.2,0,0,0,.04-21.471q-4.186-4.815-11.588-4.815m8.787,21.079a19.329,19.329,0,0,1-1.486,3.64q-2.589,4.584-7.382,4.585t-7.3-4.585a20.068,20.068,0,0,1-2.093-9.336,18.55,18.55,0,0,1,2.012-9.336,8.011,8.011,0,0,1,7.462-4.368,7.566,7.566,0,0,1,5.349,1.978,12.142,12.142,0,0,1,3.205,5.243,18.993,18.993,0,0,1,.718,3.2,31.436,31.436,0,0,1,.233,4.191,15.875,15.875,0,0,1-.718,4.791" transform="translate(-79.682 -136.372)" fill="#fff"/>
    <path id="Caminho_67" data-name="Caminho 67" d="M247.4,276.549a14.04,14.04,0,0,1-6.259,1.264,8.147,8.147,0,0,1-7.4-4.229,17.936,17.936,0,0,1-2.265-9.186q-.081-13.907,10.152-13.907a9.779,9.779,0,0,1,5.693,1.819,7.515,7.515,0,0,1,3.205,5h1.719v-8.474h-1.658a4.517,4.517,0,0,1-.849,2.577,6.914,6.914,0,0,0-1.355-.933,14.576,14.576,0,0,0-7.119-1.664q-7.544,0-11.78,4.411a15.433,15.433,0,0,0-4.237,11.14,15.208,15.208,0,0,0,4.247,11.08q4.247,4.351,11.406,4.351a14.522,14.522,0,0,0,8.373-2.278,8.414,8.414,0,0,0,3.2-3.446l-1.052-.94a10.145,10.145,0,0,1-4.014,3.419" transform="translate(-123.456 -136.372)" fill="#fff"/>
    <path id="Caminho_68" data-name="Caminho 68" d="M309.923,248.858h-2.346l-11.406,29.365h-2.184V279.8h7.988v-1.578h-3.641L301,271.165H313.28l2.912,7.058h-3.034V279.8h11.022v-1.578h-2.063Zm-8.312,20.729,5.278-13.974,5.744,13.974Z" transform="translate(-161.132 -136.397)" fill="#fff"/>
    <path id="Caminho_69" data-name="Caminho 69" d="M401.78,278.121a2.953,2.953,0,0,1-2.751-1.861,15.922,15.922,0,0,1-.96-2.821,27.621,27.621,0,0,0-1.244-3.65,8.011,8.011,0,0,0-6.512-4.894,10.346,10.346,0,0,0,5.744-2.673,7.474,7.474,0,0,0,2.144-5.607q0-7.757-11.629-7.757H372.84v1.578h3.276l-.02,27.686H372.84V279.8h13.449v-1.678h-4.732v-12.64h3.7a5.167,5.167,0,0,1,3.66,1.315,9.524,9.524,0,0,1,2.305,3.62,32.109,32.109,0,0,1,1.092,4q.728,3.216,2.124,4.308,1.375,1.072,5.339,1.072h4.573l-.094-1.678Zm-15.572-14.035h-4.651V250.435h4.287q3.782,0,5.36,1.847a6.984,6.984,0,0,1,1.274,4.617,8.974,8.974,0,0,1-1.092,4.838q-1.5,2.349-5.177,2.349" transform="translate(-204.351 -136.397)" fill="#fff"/>
  </g>
</svg>
