<svg xmlns="http://www.w3.org/2000/svg" width="189" height="135.535" viewBox="0 0 189 135.535">
  <g id="Grupo_109" data-name="Grupo 109" transform="translate(0.339 -2325.928)">
    <g id="Grupo_14" data-name="Grupo 14" transform="translate(14.338 2325.928)">
      <g id="Grupo_1" data-name="Grupo 1" transform="translate(76.346)">
        <path id="Caminho_1" data-name="Caminho 1" d="M213.384,2388.044a.581.581,0,0,1-.581-.581v-60.954a.581.581,0,1,1,1.162,0v60.954A.581.581,0,0,1,213.384,2388.044Z" transform="translate(-212.803 -2325.928)" fill="#ead4c5"/>
      </g>
      <g id="Grupo_2" data-name="Grupo 2" transform="translate(23.602 61.052)">
        <path id="Caminho_2" data-name="Caminho 2" d="M116.177,2485.236a.582.582,0,0,1-.29-.079l-26.3-15.184a.581.581,0,1,1,.581-1.007l26.3,15.186a.581.581,0,0,1-.291,1.084Z" transform="translate(-89.295 -2468.888)" fill="#ead4c5"/>
      </g>
      <g id="Grupo_3" data-name="Grupo 3" transform="translate(17.402 75.71)">
        <path id="Caminho_3" data-name="Caminho 3" d="M104.79,2512.259a.564.564,0,0,1-.151-.021l-29.429-7.885a.581.581,0,1,1,.3-1.122l29.429,7.885a.581.581,0,0,1-.15,1.143Z" transform="translate(-74.779 -2503.211)" fill="#ead4c5"/>
      </g>
      <g id="Grupo_4" data-name="Grupo 4" transform="translate(22.361 37.519)">
        <path id="Caminho_4" data-name="Caminho 4" d="M119.355,2447.327a.58.58,0,0,1-.411-.17l-32.383-32.383a.581.581,0,0,1,.821-.822l32.383,32.383a.581.581,0,0,1-.41.991Z" transform="translate(-86.391 -2413.782)" fill="#ead4c5"/>
      </g>
      <g id="Grupo_5" data-name="Grupo 5" transform="translate(45.832 38.653)">
        <path id="Caminho_5" data-name="Caminho 5" d="M157.169,2443.99a.581.581,0,0,1-.5-.291l-15.237-26.39a.581.581,0,0,1,1.007-.581l15.236,26.39a.582.582,0,0,1-.5.872Z" transform="translate(-141.351 -2416.438)" fill="#ead4c5"/>
      </g>
      <g id="Grupo_6" data-name="Grupo 6" transform="translate(60.565 32.61)">
        <path id="Caminho_6" data-name="Caminho 6" d="M184.3,2432.829a.581.581,0,0,1-.561-.431l-7.872-29.378a.581.581,0,0,1,1.122-.3l7.872,29.379a.582.582,0,0,1-.562.731Z" transform="translate(-175.85 -2402.289)" fill="#ead4c5"/>
      </g>
      <g id="Grupo_7" data-name="Grupo 7" transform="translate(102.806 60.969)">
        <path id="Caminho_7" data-name="Caminho 7" d="M275.345,2485.115a.582.582,0,0,1-.291-1.085l26.427-15.257a.581.581,0,0,1,.581,1.006l-26.427,15.257A.577.577,0,0,1,275.345,2485.115Z" transform="translate(-274.763 -2468.695)" fill="#ead4c5"/>
      </g>
      <g id="Grupo_8" data-name="Grupo 8" transform="translate(105.376 75.74)">
        <path id="Caminho_8" data-name="Caminho 8" d="M281.36,2512.43a.581.581,0,0,1-.15-1.142l29.8-7.985a.581.581,0,1,1,.3,1.122l-29.8,7.985A.565.565,0,0,1,281.36,2512.43Z" transform="translate(-280.779 -2503.283)" fill="#ead4c5"/>
      </g>
      <g id="Grupo_9" data-name="Grupo 9" transform="translate(97.948 37.519)">
        <path id="Caminho_9" data-name="Caminho 9" d="M263.967,2447.327a.581.581,0,0,1-.411-.991l32.383-32.383a.581.581,0,0,1,.822.822l-32.383,32.383A.582.582,0,0,1,263.967,2447.327Z" transform="translate(-263.386 -2413.782)" fill="#ead4c5"/>
      </g>
      <g id="Grupo_10" data-name="Grupo 10" transform="translate(91.623 38.659)">
        <path id="Caminho_10" data-name="Caminho 10" d="M249.156,2444a.581.581,0,0,1-.5-.872l15.233-26.383a.581.581,0,1,1,1.006.582l-15.232,26.383A.581.581,0,0,1,249.156,2444Z" transform="translate(-248.575 -2416.453)" fill="#ead4c5"/>
      </g>
      <g id="Grupo_11" data-name="Grupo 11" transform="translate(84.255 32.514)">
        <path id="Caminho_11" data-name="Caminho 11" d="M231.9,2432.7a.6.6,0,0,1-.151-.019.582.582,0,0,1-.411-.712l7.9-29.474a.581.581,0,1,1,1.122.3l-7.9,29.474A.581.581,0,0,1,231.9,2432.7Z" transform="translate(-231.321 -2402.062)" fill="#ead4c5"/>
      </g>
      <g id="Grupo_12" data-name="Grupo 12" transform="translate(106.895 91.504)">
        <path id="Caminho_12" data-name="Caminho 12" d="M330.715,2541.357h-45.8a.581.581,0,1,1,0-1.162h45.8a.581.581,0,0,1,0,1.162Z" transform="translate(-284.337 -2540.195)" fill="#ead4c5"/>
      </g>
      <g id="Grupo_13" data-name="Grupo 13" transform="translate(0 91.504)">
        <path id="Caminho_13" data-name="Caminho 13" d="M80.407,2541.357H34.61a.581.581,0,1,1,0-1.162h45.8a.581.581,0,0,1,0,1.162Z" transform="translate(-34.029 -2540.195)" fill="#ead4c5"/>
      </g>
    </g>
    <g id="Grupo_21" data-name="Grupo 21" transform="translate(-0.339 2432.185)">
      <g id="Grupo_15" data-name="Grupo 15" transform="translate(0 0.019)">
        <path id="Caminho_14" data-name="Caminho 14" d="M24.431,2598.011q-1.07,4.506-6.1,4.506H10.155v-12.747h4.778a4.677,4.677,0,0,1,2.475.553,2.542,2.542,0,0,1,1.08,1.942q.038.4.067,1.006t.067,1.066h1.605v-9.862H18.621q-.038.4-.067.8t-.067.766a2.252,2.252,0,0,1-1.06,1.739,5.1,5.1,0,0,1-2.494.5H10.155v-12h8.734q3.4,0,4.511,1.856a5.6,5.6,0,0,1,.726,2.208q.172,1.3.268,2.975h1.49v-8.53H-.339l.059,1.491H5.014l-.019,26.24H1.172v1.51H26.323v-8.686H24.832A16.729,16.729,0,0,1,24.431,2598.011Z" transform="translate(0.339 -2574.786)" fill="#374659"/>
      </g>
      <g id="Grupo_16" data-name="Grupo 16" transform="translate(31.557 0.019)">
        <path id="Caminho_15" data-name="Caminho 15" d="M94.646,2576.258h3.547l-7.848,21.411-8.357-21.411h3.641v-1.472H73.555v1.472h2.528l12.073,27.769h1.6l10.47-27.769h2.905v-1.472H94.646Z" transform="translate(-73.555 -2574.786)" fill="#374659"/>
      </g>
      <g id="Grupo_17" data-name="Grupo 17" transform="translate(62.086)">
        <path id="Caminho_16" data-name="Caminho 16" d="M159.509,2574.741a14.464,14.464,0,0,0-7.883,2.07,13.378,13.378,0,0,0-4.959,5.483,15.432,15.432,0,0,0-1.214,3.422,16.436,16.436,0,0,0-.411,3.673,16.934,16.934,0,0,0,.411,3.711,15.474,15.474,0,0,0,1.214,3.469,13.465,13.465,0,0,0,2.016,3,12.471,12.471,0,0,0,2.819,2.36,13.83,13.83,0,0,0,3.612,1.538,17.995,17.995,0,0,0,8.868-.01,12.73,12.73,0,0,0,6.44-3.879,16.254,16.254,0,0,0,.038-20.29Q166.5,2574.741,159.509,2574.741Zm8.3,19.92a18.282,18.282,0,0,1-1.405,3.44,7.645,7.645,0,0,1-6.976,4.332,7.486,7.486,0,0,1-6.9-4.332,18.97,18.97,0,0,1-1.978-8.823,17.529,17.529,0,0,1,1.9-8.823,7.571,7.571,0,0,1,7.052-4.128,7.149,7.149,0,0,1,5.055,1.868,11.481,11.481,0,0,1,3.029,4.955,17.951,17.951,0,0,1,.678,3.022,29.709,29.709,0,0,1,.22,3.961A15.012,15.012,0,0,1,167.813,2594.661Z" transform="translate(-145.042 -2574.741)" fill="#374659"/>
      </g>
      <g id="Grupo_18" data-name="Grupo 18" transform="translate(96.192)">
        <path id="Caminho_17" data-name="Caminho 17" d="M245.844,2600.953a13.278,13.278,0,0,1-5.915,1.194,7.7,7.7,0,0,1-6.995-4,16.943,16.943,0,0,1-2.14-8.681q-.077-13.142,9.594-13.142a9.243,9.243,0,0,1,5.38,1.718,7.1,7.1,0,0,1,3.029,4.722h1.625v-8.008h-1.567a4.271,4.271,0,0,1-.8,2.435,6.571,6.571,0,0,0-1.281-.882,13.778,13.778,0,0,0-6.727-1.572q-7.129,0-11.132,4.168a14.584,14.584,0,0,0-4,10.528,14.371,14.371,0,0,0,4.013,10.471q4.013,4.111,10.779,4.112a13.722,13.722,0,0,0,7.912-2.152,7.952,7.952,0,0,0,3.02-3.257l-.994-.888A9.592,9.592,0,0,1,245.844,2600.953Z" transform="translate(-224.907 -2574.741)" fill="#374659"/>
      </g>
      <g id="Grupo_19" data-name="Grupo 19" transform="translate(125.548 0.019)">
        <path id="Caminho_18" data-name="Caminho 18" d="M308.708,2574.786h-2.217l-10.779,27.75h-2.064v1.491H301.2v-1.491h-3.44l2.523-6.67h11.6l2.752,6.67h-2.867v1.491h10.416v-1.491h-1.949Zm-7.855,19.589,4.988-13.206,5.428,13.206Z" transform="translate(-293.648 -2574.786)" fill="#374659"/>
      </g>
      <g id="Grupo_20" data-name="Grupo 20" transform="translate(159.222 0.019)">
        <path id="Caminho_19" data-name="Caminho 19" d="M399.849,2602.44a2.79,2.79,0,0,1-2.6-1.758,14.982,14.982,0,0,1-.908-2.666,26.058,26.058,0,0,0-1.175-3.45,7.571,7.571,0,0,0-6.154-4.625,9.774,9.774,0,0,0,5.428-2.525,7.064,7.064,0,0,0,2.026-5.3q0-7.33-10.989-7.331H372.5v1.491h3.1l-.019,26.163H372.5v1.586h12.709v-1.586h-4.472V2590.5h3.5a4.883,4.883,0,0,1,3.459,1.242,9,9,0,0,1,2.178,3.421,30.307,30.307,0,0,1,1.032,3.784q.688,3.04,2.007,4.071,1.3,1.013,5.045,1.013h4.321l-.089-1.586Zm-14.716-13.263h-4.4v-12.9h4.052q3.573,0,5.064,1.745a6.6,6.6,0,0,1,1.2,4.364,8.475,8.475,0,0,1-1.032,4.571Q388.611,2589.177,385.133,2589.177Z" transform="translate(-372.5 -2574.786)" fill="#374659"/>
      </g>
    </g>
  </g>
</svg>
